<?xml version="1.0" encoding="utf-8"?>
<!-- Generator: Adobe Illustrator 21.1.0, SVG Export Plug-In . SVG Version: 6.00 Build 0)  -->
<!DOCTYPE svg PUBLIC "-//W3C//DTD SVG 1.1 Tiny//EN" "http://www.w3.org/Graphics/SVG/1.1/DTD/svg11-tiny.dtd">
<svg version="1.1" baseProfile="tiny" id="Layer_1" xmlns="http://www.w3.org/2000/svg" xmlns:xlink="http://www.w3.org/1999/xlink"
	 x="0px" y="0px" viewBox="0 0 25.7 19.4" xml:space="preserve">
<path fill="#231F20" d="M24.7,0H1C0.5,0,0,0.5,0,1v1.8c0,0.6,0.5,1,1,1h23.6c0.6,0,1-0.5,1-1V1C25.7,0.5,25.2,0,24.7,0z M24.7,7.7H1
	c-0.6,0-1,0.5-1,1v1.8c0,0.6,0.5,1,1,1h23.6c0.6,0,1-0.5,1-1V8.8C25.7,8.2,25.2,7.7,24.7,7.7z M24.7,15.5H1c-0.6,0-1,0.5-1,1v1.8
	c0,0.6,0.5,1,1,1h23.6c0.6,0,1-0.5,1-1v-1.8C25.7,15.9,25.2,15.5,24.7,15.5z"/>
</svg>
